<svg width="62" height="52" viewBox="0 0 62 52" fill="none" xmlns="http://www.w3.org/2000/svg">
<path d="M44.3334 50V44.6667C44.3334 41.8377 43.2095 39.1246 41.2092 37.1242C39.2088 35.1238 36.4957 34 33.6667 34H12.3334C9.50438 34 6.79127 35.1238 4.79088 37.1242C2.79049 39.1246 1.66669 41.8377 1.66669 44.6667V50M33.6666 12.6667C33.6666 18.5577 28.891 23.3333 23 23.3333C17.1089 23.3333 12.3333 18.5577 12.3333 12.6667C12.3333 6.77563 17.1089 2 23 2C28.891 2 33.6666 6.77563 33.6666 12.6667Z" stroke="#151617" stroke-width="3" stroke-linecap="round" stroke-linejoin="round"/>
<path d="M60.3333 50V44.6667C60.3316 42.3033 59.545 40.0074 58.097 38.1395C56.649 36.2716 54.6217 34.9375 52.3333 34.3467M41.6667 2.34668C43.9611 2.93415 45.9948 4.26855 47.4471 6.13951C48.8993 8.01046 49.6876 10.3116 49.6876 12.68C49.6876 15.0485 48.8993 17.3496 47.4471 19.2205C45.9948 21.0915 43.9611 22.4259 41.6667 23.0133" stroke="#151617" stroke-width="3" stroke-linecap="round" stroke-linejoin="round"/>
</svg>
