<svg width="58" height="58" viewBox="0 0 58 58" fill="none" xmlns="http://www.w3.org/2000/svg">
<path d="M26 7.65686H7.33333C5.91885 7.65686 4.56229 8.21876 3.5621 9.21896C2.5619 10.2192 2 11.5757 2 12.9902V50.3235C2 51.738 2.5619 53.0946 3.5621 54.0948C4.56229 55.095 5.91885 55.6569 7.33333 55.6569H44.6667C46.0812 55.6569 47.4377 55.095 48.4379 54.0948C49.4381 53.0946 50 51.738 50 50.3235V31.6569" stroke="#151617" stroke-width="3" stroke-linecap="round" stroke-linejoin="round"/>
<path d="M46 3.65685C47.0609 2.59599 48.4997 2 50 2C51.5003 2 52.9391 2.59599 54 3.65685C55.0609 4.71772 55.6569 6.15656 55.6569 7.65685C55.6569 9.15715 55.0609 10.596 54 11.6569L28.6667 36.9902L18 39.6569L20.6667 28.9902L46 3.65685Z" stroke="#151617" stroke-width="3" stroke-linecap="round" stroke-linejoin="round"/>
</svg>
